<svg width="21" height="19" viewBox="0 0 21 19" fill="none" xmlns="http://www.w3.org/2000/svg">
<path d="M18.251 10.7056V8.99863C18.251 4.55663 14.772 0.83763 10.496 0.70863C8.29198 0.65763 6.24498 1.44463 4.67998 2.96463C3.11298 4.48463 2.25098 6.52363 2.25098 8.70563V10.7056C1.14798 10.7056 0.250977 11.6026 0.250977 12.7056V16.7056C0.250977 17.8086 1.14798 18.7056 2.25098 18.7056H4.25098V8.70563C4.25098 7.06863 4.89698 5.53963 6.07198 4.39963C7.24598 3.25963 8.80698 2.66063 10.435 2.70863C13.643 2.80463 16.251 5.62663 16.251 8.99863V18.7056H18.251C19.354 18.7056 20.251 17.8086 20.251 16.7056V12.7056C20.251 11.6026 19.354 10.7056 18.251 10.7056Z" fill="white"/>
</svg>
